<svg xmlns="http://www.w3.org/2000/svg" xmlns:xlink="http://www.w3.org/1999/xlink" width="2048" zoomAndPan="magnify" viewBox="0 0 1536 474.749983" height="633" preserveAspectRatio="xMidYMid meet" version="1.0"><defs><clipPath id="38ecd93e5e"><path d="M 6.566406 1.90625 L 487 1.90625 L 487 472.65625 L 6.566406 472.65625 Z M 6.566406 1.90625 " clip-rule="nonzero"/></clipPath><clipPath id="e561a4a80e"><path d="M 1435 174 L 1529.765625 174 L 1529.765625 286 L 1435 286 Z M 1435 174 " clip-rule="nonzero"/></clipPath></defs><g clip-path="url(#38ecd93e5e)"><path fill="#b1b1b1" d="M 247.21875 20.082031 C 252.128906 20.082031 255.609375 20.472656 260.480469 20.449219 C 268.203125 20.417969 288.773438 23.5 296.441406 25.382812 C 319.320312 31.011719 332.617188 35.71875 353.695312 46.902344 C 354.597656 47.375 355.078125 47.636719 355.886719 48.121094 C 356.628906 48.570312 357.09375 48.878906 358.011719 49.402344 L 365.40625 53.75 C 365.851562 54.03125 366.066406 54.226562 366.507812 54.542969 L 380.894531 64.390625 L 397.824219 78.132812 C 398.492188 78.691406 398.925781 79.195312 399.542969 79.824219 L 410.019531 90.171875 C 414.15625 95.054688 418.847656 99.582031 422.714844 104.742188 C 433.078125 118.570312 444.582031 135.984375 450.710938 152.109375 L 454.632812 161.824219 C 463.902344 184.882812 468.367188 213.164062 468.367188 237.84375 C 468.367188 272.195312 459.929688 300.898438 449.304688 324.824219 C 445.902344 332.480469 442.289062 339.53125 438.097656 346.558594 C 437.210938 348.054688 436.417969 349.234375 435.496094 350.777344 C 430.621094 358.941406 424.578125 366.351562 418.761719 373.808594 L 402.953125 390.945312 C 402.328125 391.566406 401.902344 392.070312 401.230469 392.632812 L 396.457031 396.945312 C 396.398438 397 396.308594 397.066406 396.25 397.121094 L 379.539062 410.703125 C 378.644531 411.375 378.625 411.539062 377.648438 412.21875 C 372.308594 415.933594 367.089844 419.339844 361.5625 422.640625 L 348.871094 429.644531 C 347.171875 430.464844 346.058594 431.132812 344.324219 431.914062 L 310.972656 444.765625 C 309.824219 445.078125 309.328125 445.140625 308.285156 445.488281 C 298.757812 448.65625 288.050781 450.160156 278.269531 451.828125 C 260.390625 454.867188 233.933594 454.34375 215.902344 451.710938 C 192.890625 448.355469 172.140625 442.628906 151.363281 432.9375 C 150.441406 432.503906 150.902344 432.699219 150.113281 432.292969 L 134.492188 424.054688 C 132.929688 423.128906 131.632812 422.550781 130.128906 421.601562 C 128.625 420.652344 127.527344 419.886719 125.964844 418.949219 C 120.390625 415.597656 114.910156 411.878906 109.867188 407.773438 C 106.085938 404.691406 102.25 401.84375 98.675781 398.519531 L 95.082031 395.292969 C 94.746094 394.964844 94.621094 394.867188 94.289062 394.570312 C 94.210938 394.496094 93.972656 394.285156 93.894531 394.210938 L 77.355469 377.050781 C 77.304688 376.984375 77.234375 376.902344 77.183594 376.84375 C 77.023438 376.660156 76.9375 376.558594 76.664062 376.226562 L 66.207031 362.824219 C 65.636719 362.035156 65.25 361.726562 64.679688 360.941406 C 61.367188 356.339844 58.453125 351.199219 55.335938 346.429688 C 54.839844 345.667969 54.488281 344.917969 54.105469 344.25 L 43.597656 324.078125 C 40.230469 317.386719 36.429688 306.683594 34.253906 299.34375 C 30.082031 285.28125 28.183594 274.195312 26.324219 259.550781 C 25.878906 256.03125 25.277344 250.972656 25.296875 246.945312 C 25.316406 243.035156 24.589844 236.976562 25.023438 233.796875 C 25.796875 228.121094 25.582031 217.867188 26.875 208.757812 C 27.429688 204.863281 28.136719 201.015625 28.8125 197.058594 C 29.121094 195.230469 29.550781 193.542969 29.945312 191.375 C 32.023438 179.957031 37.007812 166.195312 41.417969 155.128906 C 44.519531 147.347656 48.285156 139.457031 52.636719 132.265625 L 59.582031 120.65625 C 63.519531 114.140625 68.277344 107.871094 73.21875 102.105469 L 74.902344 100 C 77.820312 96.15625 81.441406 92.878906 84.570312 89.214844 C 89.234375 83.757812 94.964844 78.699219 100.417969 74.007812 L 103.921875 71.074219 C 104.691406 70.433594 105.128906 70.191406 105.847656 69.585938 C 114.640625 62.136719 124.265625 56.027344 134.105469 50.125 C 148.960938 41.222656 165.097656 34.625 181.652344 29.507812 C 183.332031 28.988281 185.121094 28.417969 186.96875 28.007812 L 197.914062 25.316406 C 205.445312 23.40625 213.476562 22.1875 221.433594 21.570312 C 225.242188 21.273438 229.859375 20.433594 233.949219 20.457031 C 238.863281 20.476562 242.335938 20.085938 247.210938 20.085938 Z M 235.511719 1.90625 L 257.773438 1.90625 C 263.4375 2.074219 268.675781 2.359375 272.152344 2.71875 C 289.148438 4.46875 314.660156 10 330.523438 16.296875 C 335.582031 18.300781 340.917969 20.148438 345.921875 22.480469 L 360.179688 29.433594 C 366.535156 32.621094 372.480469 36.136719 378.390625 40.003906 L 395.003906 51.792969 C 396.480469 52.898438 397.617188 53.820312 398.976562 55.019531 C 400.386719 56.257812 401.5 56.898438 402.945312 58.246094 C 403.8125 59.054688 404.160156 59.152344 405.03125 59.953125 L 410.589844 65.003906 C 415.390625 69.351562 420.652344 74.25 424.910156 79.082031 C 425.675781 79.953125 425.753906 80.285156 426.609375 81.171875 C 433.019531 87.8125 439.019531 95.308594 444.203125 102.964844 C 445.226562 104.480469 446.273438 105.582031 447.238281 107.125 C 452.867188 116.101562 458.289062 125.003906 463.0625 134.464844 C 469.042969 146.308594 475.683594 163.09375 478.683594 176.03125 C 478.890625 176.925781 479.1875 177.566406 479.480469 178.644531 C 481.824219 187.210938 483.722656 196.433594 484.917969 205.398438 C 487.601562 225.582031 486.578125 228.5 486.554688 246.582031 L 486.171875 253.777344 C 485.933594 262.445312 482.441406 284.285156 480.054688 292.722656 L 476.835938 304.65625 C 476.128906 306.839844 475.671875 308.1875 475.023438 310.414062 L 470.96875 321.507812 C 469.703125 325 468.214844 328.457031 466.632812 331.941406 C 466.066406 333.1875 465.839844 333.414062 465.378906 334.480469 L 459.085938 347.121094 C 453.007812 358.417969 445.996094 368.738281 438.335938 379.007812 C 436.160156 381.921875 434.035156 384.40625 431.710938 387.15625 L 417.332031 402.691406 C 416.613281 403.410156 416.171875 403.933594 415.402344 404.550781 C 414.472656 405.289062 414.25 405.382812 413.351562 406.285156 C 407.859375 411.808594 399.40625 419.34375 392.929688 423.734375 C 389.9375 425.765625 387.398438 427.917969 384.371094 429.945312 L 365.722656 441.589844 C 359.410156 445.207031 352.539062 448.710938 345.722656 451.503906 C 342.210938 452.941406 338.703125 454.617188 335.019531 455.949219 C 327.472656 458.683594 319.988281 461.320312 312.265625 463.488281 L 297.355469 467.136719 C 296.121094 467.378906 295.546875 467.636719 294.320312 467.890625 C 286.320312 469.546875 267.78125 471.972656 253.683594 472.65625 L 241.402344 472.65625 C 240.707031 472.597656 240.054688 472.523438 239.46875 472.433594 C 237.1875 472.085938 234.804688 472.484375 232.535156 472.171875 C 226.234375 471.3125 219.042969 471.207031 212.566406 470.175781 C 187.5625 466.199219 162.757812 459.4375 140.03125 448.039062 C 127.410156 441.703125 114.996094 434.539062 103.621094 426.128906 C 100.84375 424.078125 98.074219 422.113281 95.410156 419.949219 L 88.183594 413.921875 C 88.125 413.875 88.035156 413.800781 87.980469 413.75 L 73.355469 399.96875 C 69.472656 395.953125 65.472656 391.832031 61.96875 387.5 C 56.511719 380.742188 51.101562 374.09375 46.269531 366.84375 L 37.808594 353.335938 C 28.257812 337.425781 21.386719 320.339844 15.867188 302.566406 L 12.84375 290.820312 C 12.265625 288.78125 12.007812 287.230469 11.496094 284.964844 C 10.5625 280.796875 10.015625 277.164062 9.28125 272.789062 C 7.808594 264.046875 6.738281 255.085938 6.738281 246.171875 L 6.738281 227.234375 C 6.738281 214.753906 8.691406 201.003906 11.4375 188.761719 C 13.222656 180.8125 15.207031 173.949219 17.472656 166.390625 C 19.632812 159.171875 22.707031 152.769531 25.144531 145.664062 C 25.851562 143.613281 26.605469 142.652344 27.402344 140.726562 C 32.757812 127.738281 40.449219 115.964844 48.164062 104.300781 C 48.695312 103.496094 49.035156 102.921875 49.523438 102.253906 L 69.535156 77.953125 C 69.589844 77.894531 69.660156 77.8125 69.714844 77.753906 C 70.050781 77.382812 70.105469 77.328125 70.449219 76.972656 C 74.417969 72.929688 78.332031 68.613281 82.679688 64.972656 L 100.648438 49.992188 C 107.445312 44.902344 114.644531 40.09375 121.972656 35.722656 C 123.527344 34.800781 124.644531 34.027344 126.269531 33.207031 C 127.980469 32.339844 129.25 31.523438 130.886719 30.628906 C 138.734375 26.34375 146.808594 22.609375 155.113281 19.261719 C 177.433594 10.28125 194.371094 6.726562 217.539062 3.296875 C 222.414062 2.574219 226.847656 2.664062 230.851562 2.222656 C 232.097656 2.085938 233.675781 1.980469 235.492188 1.898438 Z M 235.511719 1.90625 " fill-opacity="1" fill-rule="evenodd"/></g><path fill="#5e9b3a" d="M 79.839844 228.761719 C 79.839844 235.816406 80.890625 245.320312 82.914062 251.824219 C 86.921875 264.726562 93.625 274.96875 105.882812 281.492188 C 118.03125 287.953125 139.90625 289.324219 151.472656 280.707031 C 154.105469 278.742188 155.902344 277.289062 158.140625 274.875 C 160.988281 271.796875 162.023438 268.652344 163.90625 268.148438 C 163.90625 283.574219 165.855469 302.726562 150.65625 309.425781 C 142.75 312.917969 133.863281 313.074219 125.242188 311.359375 C 117.152344 309.753906 110.625 305.148438 108.625 296.546875 C 105.535156 295.828125 87.09375 295.828125 84.011719 296.546875 C 84.011719 307.074219 92.230469 318.804688 101.703125 323.535156 C 102.320312 323.839844 102.648438 323.96875 103.234375 324.273438 C 104.078125 324.710938 104.054688 324.695312 105.046875 325.113281 L 112.542969 327.835938 C 128.039062 332.855469 153.644531 331.488281 168.339844 322.9375 C 171.914062 320.859375 171.859375 320.699219 174.476562 318.472656 C 184.984375 309.550781 188.523438 294.527344 188.523438 280.632812 L 188.523438 178.753906 C 188.523438 174.289062 180.847656 176.492188 176.035156 176.496094 C 169.082031 176.507812 167.285156 174.980469 163.910156 177.242188 C 163.910156 189.527344 164.414062 226.015625 163.472656 235.503906 C 162.160156 248.816406 155.816406 261.984375 142.949219 266.109375 C 131.609375 269.746094 118.804688 266.023438 112.027344 256.398438 L 109.28125 251.570312 C 105.476562 243.824219 104.453125 238.128906 104.453125 229.128906 C 104.453125 220.617188 107.648438 210.40625 111.804688 203.535156 C 112.4375 202.488281 112.679688 202.230469 113.441406 201.378906 L 115.023438 199.554688 C 115.082031 199.5 115.167969 199.429688 115.226562 199.375 L 120.285156 195.722656 C 128.988281 190.445312 142.855469 192.09375 150.65625 197.316406 C 150.65625 193.527344 150.65625 189.742188 150.65625 185.953125 C 150.65625 181.691406 151.058594 178.707031 148.460938 176.785156 C 145.542969 174.628906 134.84375 173.078125 129.445312 173.078125 C 108.300781 173.078125 90.148438 186.699219 83.671875 206.070312 C 81.34375 213.035156 79.839844 219.5 79.839844 228.75 Z M 79.839844 228.761719 " fill-opacity="1" fill-rule="evenodd"/><path fill="#717172" d="M 902.710938 178.765625 C 902.710938 180.882812 910.144531 203.347656 910.792969 205.523438 L 914.96875 218.769531 C 916.425781 223.433594 917.585938 227.53125 919.042969 232.117188 C 919.734375 234.300781 920.398438 236.25 921.132812 238.734375 C 921.828125 241.078125 922.46875 243.148438 923.210938 245.367188 C 923.933594 247.523438 924.511719 249.605469 925.21875 252.078125 L 933.445312 278.691406 C 933.617188 279.183594 934.308594 281.28125 934.609375 281.6875 C 935.867188 283.371094 941.339844 283.011719 943.238281 282.914062 C 944.9375 282.824219 945.332031 282.523438 947.398438 282.511719 C 951.433594 282.492188 958.382812 284.535156 959.917969 280.660156 L 976.03125 215.34375 C 976.304688 214.140625 976.40625 214.058594 976.695312 212.980469 C 976.917969 212.15625 977.089844 211.089844 977.238281 210.496094 C 977.671875 208.707031 978.296875 207.234375 978.457031 205.273438 L 979.21875 205.273438 C 979.265625 207.375 984.890625 228.078125 985.816406 232.386719 L 998.070312 281.101562 C 999.652344 284.183594 1004.84375 282.539062 1009.507812 282.539062 C 1012.941406 282.539062 1015.242188 282.933594 1018.226562 282.941406 C 1024.132812 282.957031 1023.484375 279.230469 1025.9375 271.691406 C 1026.78125 269.101562 1027.371094 267.039062 1028.210938 264.5 L 1054.148438 181.742188 C 1054.792969 179.726562 1055.058594 180.085938 1054.570312 178 C 1050.933594 177.152344 1038.675781 177.621094 1034.121094 177.621094 C 1030.882812 177.621094 1030.347656 181.726562 1029.476562 185.472656 L 1026.21875 197.746094 C 1025.953125 198.636719 1025.6875 199.273438 1025.503906 200.066406 C 1025.039062 202.0625 1024.71875 203.269531 1024.195312 205.191406 L 1015.398438 237.675781 C 1015.15625 238.65625 1014.960938 239.019531 1014.671875 239.976562 L 1009.882812 255.265625 C 1009.492188 253.582031 1009.070312 252.429688 1008.65625 250.433594 C 1005.476562 235.261719 999.914062 216.246094 996.726562 201.011719 C 996.285156 198.898438 995.878906 197.769531 995.460938 195.839844 C 994.765625 192.59375 994.050781 188.972656 993.09375 185.710938 C 990.222656 175.910156 995.277344 177.625 970.125 177.625 C 966.140625 177.625 965.988281 184.519531 964.367188 190.429688 L 951.734375 240.285156 C 951.027344 243.117188 948.15625 253.640625 948.15625 255.644531 C 947 254.792969 946.652344 253.054688 946.292969 251.449219 C 945.871094 249.539062 945.507812 248.328125 945.03125 246.269531 L 933.105469 201.011719 C 932.40625 197.988281 928.195312 179.964844 926.738281 178.597656 C 926.136719 178.03125 925.3125 177.632812 924.292969 177.632812 L 904.226562 177.632812 C 903.492188 177.632812 902.710938 178.308594 902.710938 178.765625 Z M 902.710938 178.765625 " fill-opacity="1" fill-rule="evenodd"/><path fill="#717172" d="M 1172.707031 139.378906 L 1172.707031 280.265625 C 1172.707031 281.289062 1172.886719 281.308594 1173.085938 282.160156 C 1176.726562 283.007812 1188.980469 282.539062 1193.535156 282.539062 C 1195.988281 282.539062 1195.050781 275.234375 1195.050781 272.691406 L 1195.035156 231.773438 C 1195.085938 227.382812 1195.972656 220.253906 1196.84375 216.164062 C 1197.730469 211.988281 1199.71875 207.296875 1202.125 204.023438 L 1204.789062 200.636719 C 1211.871094 192.894531 1229.011719 190.507812 1239.414062 197.644531 C 1243.714844 200.597656 1247.109375 205.6875 1249.453125 210.707031 L 1252.378906 219.519531 C 1255.070312 230.046875 1253.214844 246.90625 1246.707031 255.820312 C 1242.664062 261.355469 1239.761719 264.136719 1232.316406 266.039062 C 1224.304688 268.089844 1215.207031 266.757812 1208.628906 262.144531 C 1207.757812 261.539062 1207.804688 261.496094 1206.785156 260.957031 C 1206.785156 265 1206.785156 269.039062 1206.785156 273.074219 C 1206.785156 278.75 1205.867188 279.96875 1210.296875 281.683594 C 1229.207031 289 1251.714844 286.777344 1264.941406 269.886719 C 1276.640625 254.941406 1279.667969 232.445312 1275.023438 213.917969 C 1272.945312 205.628906 1271.066406 200.589844 1266.617188 193.921875 C 1263.851562 189.785156 1265.199219 191.878906 1262.796875 189.035156 L 1261.941406 188 C 1261.621094 187.621094 1261.730469 187.726562 1261.414062 187.394531 C 1260.910156 186.855469 1260.738281 186.75 1260.222656 186.3125 C 1260.164062 186.261719 1260.074219 186.191406 1260.015625 186.140625 C 1248.132812 176.148438 1235.964844 173.320312 1220.148438 175.46875 C 1211.382812 176.660156 1206.28125 180.550781 1199.984375 185.976562 L 1197.597656 188.515625 C 1196.964844 189.207031 1196.90625 189.273438 1196.1875 189.753906 L 1196.1875 150.746094 C 1196.1875 146.714844 1196.789062 141.078125 1195.429688 138.25 C 1191.792969 137.402344 1179.535156 137.871094 1174.980469 137.871094 C 1173.820312 137.871094 1172.707031 138.21875 1172.707031 139.386719 Z M 1172.707031 139.378906 " fill-opacity="1" fill-rule="evenodd"/><path fill="#717172" d="M 1062.894531 208.308594 C 1062.894531 209.195312 1063.519531 209.824219 1064.40625 209.824219 L 1084.097656 209.824219 C 1088.339844 209.824219 1085.199219 202.964844 1091.660156 198.070312 C 1101.574219 190.5625 1131.054688 189.949219 1131.054688 206.796875 C 1131.054688 211.777344 1129.929688 214.875 1124.753906 217.535156 C 1121.253906 219.335938 1117.28125 219.546875 1112.667969 220.222656 C 1106.191406 221.164062 1092.726562 222.824219 1087.042969 224.132812 C 1075.648438 226.761719 1064.972656 231.105469 1060.941406 242.339844 C 1058.242188 249.847656 1057.691406 260.5 1061.414062 267.722656 C 1062.441406 269.714844 1063.179688 270.992188 1064.398438 272.695312 C 1065.449219 274.167969 1066.898438 275.484375 1068.28125 276.765625 C 1073.410156 281.542969 1083.617188 285.5625 1090.910156 285.5625 C 1102.429688 285.5625 1111.195312 285.769531 1121.78125 280.078125 C 1126.984375 277.289062 1127.917969 275.792969 1131.429688 273.441406 C 1132.488281 275.652344 1133.386719 279.503906 1136.28125 281.835938 C 1142.484375 286.835938 1151.917969 286.070312 1159.296875 284.648438 C 1166.316406 283.292969 1164.335938 280.355469 1164.367188 275.339844 C 1164.378906 273.011719 1164.796875 269.433594 1163.992188 267.761719 C 1160.949219 266.300781 1156.21875 268.425781 1154.332031 265.683594 C 1152.992188 263.738281 1153.390625 258.167969 1153.390625 254.882812 C 1153.390625 246.929688 1153.390625 238.976562 1153.390625 231.023438 C 1152.339844 231.578125 1151.097656 232.292969 1150.089844 233.023438 C 1146.378906 235.722656 1142.566406 237.847656 1138.460938 239.953125 C 1137.648438 240.371094 1137.460938 240.414062 1136.625 240.765625 C 1127.855469 244.503906 1130.175781 243.5625 1129.492188 249.917969 C 1127.0625 272.394531 1082.199219 272.472656 1082.199219 253.75 C 1082.199219 246.582031 1086.050781 242.253906 1091.652344 239.347656 C 1101 234.507812 1117.941406 237.589844 1136.300781 227.566406 C 1136.511719 227.453125 1136.996094 227.207031 1137.28125 227.035156 L 1144.503906 221.761719 C 1151.632812 215.765625 1154.199219 209.617188 1152.910156 200.441406 C 1152.378906 196.628906 1149.753906 190.734375 1147.234375 187.9375 C 1146.730469 187.382812 1146.503906 187.109375 1145.988281 186.535156 L 1144.410156 185.082031 C 1135.015625 176.671875 1120.625 174.589844 1108.320312 174.589844 C 1104.050781 174.589844 1099.207031 175.265625 1095.148438 176.183594 C 1091.402344 177.035156 1087.066406 177.925781 1083.589844 179.398438 C 1078.746094 181.453125 1075.527344 183.722656 1071.871094 187.367188 C 1067.042969 192.175781 1062.882812 200.996094 1062.882812 208.300781 Z M 1062.894531 208.308594 " fill-opacity="1" fill-rule="evenodd"/><path fill="#717172" d="M 585.378906 208.308594 C 587.589844 208.308594 605.511719 208.585938 606.789062 208.136719 C 608.253906 207.625 609.332031 205.269531 610.21875 203.988281 C 614.261719 198.128906 622.414062 193.15625 628.925781 193.15625 C 639.210938 193.15625 643.515625 194.253906 651.179688 201.957031 C 655.199219 205.992188 658.082031 214.707031 658.082031 220.808594 L 612.628906 220.816406 C 609.847656 220.828125 608.171875 220.421875 605.0625 220.425781 C 599.886719 220.4375 594.714844 220.425781 589.535156 220.425781 C 587.113281 220.425781 583.710938 219.957031 582.417969 221.261719 C 581.015625 222.675781 581.203125 228.511719 581.203125 231.03125 C 581.203125 246.652344 585.777344 262.785156 597.695312 272.859375 C 601.902344 276.417969 604.195312 277.914062 609.351562 280.515625 C 626.175781 289.003906 648.882812 286.039062 663.53125 275.875 C 667.273438 273.277344 671.449219 269.253906 673.824219 265.332031 C 676.03125 261.699219 679.675781 254.683594 680.039062 250.339844 C 677.867188 248.882812 676.550781 248.894531 673.0625 249.421875 C 670.085938 249.875 667.664062 249.421875 665.253906 249.222656 C 656.132812 248.464844 658.15625 251.003906 654.980469 255.949219 C 647.875 266.996094 632.058594 269.667969 620.328125 264.230469 C 615.394531 261.945312 611.5 258.234375 608.804688 253.792969 C 606.367188 249.777344 603.980469 240.585938 605.0625 235.949219 L 680.410156 235.9375 C 682.445312 235.550781 681.839844 233.671875 681.941406 231.410156 C 682.152344 226.644531 682.546875 226.882812 681.886719 220.476562 C 679.421875 196.628906 658.503906 174.597656 634.605469 174.597656 C 621.066406 174.597656 612.226562 176.828125 601.285156 185.203125 C 597.570312 188.050781 593.394531 192.355469 590.941406 196.445312 L 588.152344 201.234375 C 587.277344 202.988281 585.550781 206.203125 585.378906 208.300781 Z M 585.378906 208.308594 " fill-opacity="1" fill-rule="evenodd"/><path fill="#717172" d="M 803.5 208.308594 C 806.160156 208.308594 823.84375 208.769531 825.472656 207.945312 C 828.691406 206.320312 829.578125 197.914062 842.117188 194.296875 C 855.945312 190.308594 869.269531 196.832031 874.15625 209.226562 C 874.546875 210.21875 878.683594 220.8125 875.449219 220.8125 L 827.339844 220.824219 C 824.828125 220.816406 823.414062 220.421875 820.539062 220.433594 C 815.867188 220.449219 811.195312 220.4375 806.527344 220.433594 C 799.816406 220.421875 799.710938 219.5 799.710938 231.414062 C 799.710938 239.1875 801.414062 247.960938 803.550781 253.707031 C 806.496094 261.632812 808.542969 264.179688 813.289062 270.105469 C 816.574219 274.210938 820.007812 276.191406 824.070312 278.636719 C 836.308594 286.011719 855.40625 286.898438 869.15625 282.3125 C 875.15625 280.3125 883.765625 275.402344 887.945312 270.421875 C 889.480469 268.589844 891.109375 266.714844 892.5 264.746094 C 894.535156 261.851562 898.1875 254.769531 898.550781 250.355469 L 897.332031 249.300781 C 894.066406 249.222656 892.160156 249.597656 889.085938 249.597656 C 876.503906 249.597656 877.988281 247.167969 874.570312 254.019531 C 873.03125 257.113281 871.3125 259.183594 868.734375 261.433594 C 862.625 266.773438 849.066406 268.09375 840.941406 265.175781 C 832.265625 262.0625 826.992188 255.183594 824.488281 246.410156 C 820.972656 234.121094 825.097656 235.957031 829.25 235.964844 L 891.734375 235.964844 C 894.21875 235.964844 898.289062 236.414062 899.589844 235.109375 C 900.710938 233.992188 900.820312 228.71875 900.820312 226.496094 C 900.820312 218.933594 898.71875 211.40625 896.5 205.820312 C 893.871094 199.195312 888.847656 192.082031 883.628906 187.257812 L 876.359375 181.652344 C 875.542969 181.152344 875.199219 181.03125 874.398438 180.585938 L 865.707031 176.777344 C 864.808594 176.484375 863.878906 176.339844 862.992188 176.078125 C 847.179688 171.476562 825.269531 177.230469 814.0625 190.476562 C 812.496094 192.328125 810.574219 194.539062 808.570312 197.859375 C 805.859375 202.367188 805.078125 205.316406 803.492188 208.308594 Z M 803.5 208.308594 " fill-opacity="1" fill-rule="evenodd"/><path fill="#717172" d="M 1332.132812 208.308594 L 1353.695312 208.289062 C 1356.445312 207.8125 1356.386719 202.050781 1364.621094 196.867188 C 1380.851562 186.644531 1402.925781 198.171875 1404.847656 215.882812 C 1405.128906 218.441406 1406.230469 220.597656 1402.964844 220.824219 C 1400.605469 220.988281 1397.445312 220.808594 1395 220.808594 C 1374.007812 220.808594 1354.039062 220.425781 1332.898438 220.425781 C 1327.75 220.425781 1328.910156 224.707031 1328.714844 227.222656 C 1328.359375 231.730469 1328.066406 228.136719 1328.679688 233.742188 C 1329.050781 237.171875 1328.550781 238.355469 1329.710938 244.070312 C 1331.496094 252.863281 1334.710938 261.492188 1340.324219 268.292969 C 1340.378906 268.359375 1340.445312 268.441406 1340.5 268.5 C 1340.550781 268.558594 1340.621094 268.644531 1340.671875 268.707031 C 1340.726562 268.765625 1340.792969 268.855469 1340.847656 268.910156 C 1356.699219 287.707031 1387.402344 290.085938 1408.796875 277.023438 C 1416.734375 272.179688 1421.351562 265.519531 1425.050781 257.296875 C 1426.0625 255.039062 1427.382812 252.042969 1426.8125 249.589844 C 1424 248.9375 1422.605469 249.238281 1419.941406 249.539062 C 1417.160156 249.847656 1414.585938 249.417969 1412.398438 249.230469 C 1403.871094 248.523438 1405.609375 250.144531 1402.699219 255.019531 C 1398.839844 261.503906 1391.472656 266.636719 1383.257812 266.636719 C 1377.570312 266.636719 1377.308594 266.925781 1371.617188 265.78125 C 1369.855469 265.429688 1368.007812 264.683594 1366.394531 263.808594 C 1362.980469 261.964844 1360.730469 260.347656 1358.472656 257.339844 C 1354.574219 252.144531 1350.757812 242.175781 1352.203125 235.964844 L 1425.308594 235.984375 C 1427.628906 235.980469 1427.746094 235.714844 1429.070312 234.828125 C 1429.070312 232.085938 1429.449219 231.035156 1429.449219 228.390625 C 1429.449219 217.457031 1426.46875 206.242188 1421.042969 198.167969 C 1417.914062 193.511719 1415.613281 190.414062 1411.621094 186.761719 C 1408.019531 183.480469 1405.878906 181.964844 1401.140625 179.441406 C 1385.894531 171.335938 1363.160156 173.722656 1349.164062 184.445312 C 1342.835938 189.292969 1337.117188 197.136719 1333.71875 204.601562 C 1333.148438 205.84375 1332.417969 207.074219 1332.128906 208.308594 Z M 1332.132812 208.308594 " fill-opacity="1" fill-rule="evenodd"/><g clip-path="url(#e561a4a80e)"><path fill="#717172" d="M 1437.78125 202.625 C 1437.78125 209.152344 1437.683594 212.996094 1441.066406 219.035156 C 1445.175781 226.371094 1449.863281 228.722656 1456.929688 231.566406 C 1468.574219 236.257812 1479.648438 237.558594 1490.71875 240.566406 C 1496.308594 242.085938 1503.820312 244.714844 1505.351562 250.925781 C 1508.191406 262.488281 1498.101562 265.601562 1489.125 266.84375 C 1483.414062 267.628906 1484.183594 267.207031 1480.183594 267.007812 C 1470.898438 266.542969 1461.808594 263.207031 1459.640625 253.089844 C 1459.429688 252.113281 1459.046875 250.109375 1458.605469 249.199219 C 1454.957031 248.351562 1442.375 248.820312 1437.777344 248.820312 C 1436.003906 248.820312 1435.355469 249.441406 1435.488281 251.410156 C 1435.554688 252.429688 1435.996094 255.265625 1436.15625 256.125 C 1439.667969 274.601562 1453.476562 281.429688 1470.445312 284.703125 C 1473.792969 285.347656 1481.492188 286.265625 1484.632812 285.832031 C 1489.648438 285.140625 1490.503906 286.117188 1498.503906 283.792969 C 1499.535156 283.492188 1499.566406 283.507812 1500.613281 283.25 L 1506.480469 281.171875 C 1507.976562 280.566406 1508.910156 280.378906 1510.292969 279.683594 C 1513.359375 278.132812 1515.675781 277.171875 1518.382812 274.898438 L 1520.113281 273.21875 C 1520.164062 273.164062 1520.246094 273.085938 1520.300781 273.027344 C 1528.96875 264.375 1532.667969 248.433594 1525.710938 237.378906 L 1521.695312 232.300781 C 1520.117188 230.753906 1518.351562 229.484375 1516.527344 228.378906 C 1506.21875 222.136719 1487.695312 219.34375 1474.355469 216.027344 C 1470.980469 215.1875 1466.707031 213.359375 1464.238281 210.996094 C 1456.640625 203.714844 1461.621094 189.570312 1487.546875 194.125 C 1493.457031 195.164062 1497.769531 198.066406 1500.136719 203.496094 C 1500.886719 205.210938 1500.765625 207.542969 1503.664062 207.542969 C 1508.34375 207.542969 1521.570312 208.023438 1525.246094 207.164062 C 1526.175781 203.183594 1522.957031 195.933594 1521.335938 192.894531 C 1520.324219 190.988281 1518.757812 188.941406 1517.390625 187.375 C 1509.9375 178.839844 1492.550781 174.589844 1480.183594 174.589844 C 1468.222656 174.589844 1448.871094 180.398438 1442.539062 189.578125 C 1440.300781 192.824219 1437.773438 197.417969 1437.773438 202.617188 Z M 1437.78125 202.625 " fill-opacity="1" fill-rule="evenodd"/></g><path fill="#717172" d="M 715.265625 192.402344 C 715.265625 189.554688 715.160156 186.503906 715.253906 183.679688 C 715.507812 176.242188 717.519531 177.632812 697.84375 177.632812 C 692.082031 177.632812 693.300781 180.277344 693.300781 187.097656 L 693.300781 257.917969 C 693.300781 262.183594 693.617188 267.8125 693.28125 271.910156 C 693.105469 274.035156 692.800781 276.027344 692.910156 278.753906 C 693.089844 283.109375 695.339844 283.414062 701.609375 282.890625 C 707.347656 282.417969 702.722656 282.417969 708.460938 282.890625 C 718.105469 283.6875 716.414062 281.59375 716.394531 277.988281 C 716.316406 263.667969 715.824219 234.703125 716.753906 223.429688 C 717.261719 217.3125 716.203125 210.179688 722.007812 202.933594 C 726.625 197.167969 734.335938 193.152344 741.765625 193.152344 C 747.523438 193.152344 754.238281 195.394531 757.578125 200.066406 C 758.546875 201.421875 759.710938 203.429688 760.273438 204.941406 C 763.078125 212.398438 762.214844 224.121094 762.214844 233.300781 L 762.199219 278.761719 C 762.152344 284.957031 765.050781 282.535156 773.199219 282.535156 C 776.671875 282.535156 785.695312 284.175781 785.695312 281.398438 L 785.695312 215.878906 C 785.695312 206.976562 785.785156 198.785156 781.890625 191.277344 L 779.261719 187.46875 C 779.214844 187.410156 779.140625 187.320312 779.085938 187.261719 C 777.234375 185.066406 774.734375 183.078125 772.363281 181.488281 C 766.207031 177.378906 758.074219 174.597656 750.472656 174.597656 C 739.953125 174.597656 728.539062 178.46875 721.597656 185.484375 C 720.425781 186.667969 719.59375 187.511719 718.496094 188.820312 C 717.863281 189.578125 715.78125 192.011719 715.261719 192.398438 Z M 715.265625 192.402344 " fill-opacity="1" fill-rule="evenodd"/><path fill="#5e9b3a" d="M 207.460938 327.222656 C 214.664062 327.824219 212.574219 327.222656 219.574219 327.222656 C 228.488281 327.222656 231.765625 329.480469 231.714844 323.457031 C 231.644531 315.679688 231.132812 275.027344 232.070312 273.066406 C 233.203125 273.824219 233.761719 275.039062 234.664062 276.152344 C 240.679688 283.613281 252.652344 289.347656 261.988281 289.347656 C 263.914062 289.347656 265.058594 286.175781 265.988281 284.640625 L 273.992188 270.667969 C 274.960938 268.984375 275.253906 269.597656 274.863281 267.761719 C 273.761719 268.019531 273.714844 268.203125 272.636719 268.5625 C 267.617188 270.257812 264.605469 270.03125 259.339844 270.03125 C 251.375 270.03125 243.222656 265.011719 239.042969 258.894531 C 237.871094 257.179688 237.132812 256.214844 236.019531 254.347656 C 233.0625 249.371094 231.269531 241.789062 230.9375 235.566406 C 230.320312 223.988281 230.9375 202.097656 230.9375 188.601562 C 230.9375 177.019531 233.191406 174.769531 221.492188 175.746094 C 214.53125 176.328125 218.71875 175.726562 212.382812 175.726562 C 209.65625 175.726562 207.691406 175.289062 207.160156 177.699219 C 206.777344 179.425781 207.078125 208.289062 207.078125 210.949219 L 207.078125 307.902344 C 207.078125 313.332031 206.414062 322.742188 207.460938 327.21875 Z M 207.460938 327.222656 " fill-opacity="1" fill-rule="evenodd"/><path fill="#717172" d="M 341.128906 228.761719 C 343.589844 231.589844 352.070312 234.402344 355.671875 235.421875 C 363.519531 237.640625 386.742188 241.710938 393.652344 245.914062 C 400.925781 250.328125 402.519531 259.296875 396.765625 264.710938 C 395.496094 265.910156 394.195312 266.632812 392.53125 267.285156 C 382.585938 271.195312 370.703125 271.773438 360.820312 267.390625 C 359.753906 266.921875 358.933594 266.441406 357.941406 265.722656 L 356.496094 264.519531 C 356.445312 264.46875 356.363281 264.382812 356.3125 264.324219 C 349.082031 256.746094 353.019531 252.878906 349.601562 251.347656 C 347.050781 250.207031 344.429688 251.117188 341.527344 251.117188 C 335.140625 251.125 326.363281 249.792969 326.363281 254.136719 C 326.363281 261.164062 328.175781 266.167969 331.4375 271.027344 C 332.144531 272.082031 332.664062 273.027344 333.460938 273.925781 C 345.082031 286.957031 358.542969 288.75 375.214844 289.742188 L 384.75 289.050781 C 395.90625 287.636719 407.960938 283.953125 415.964844 275.957031 L 417.03125 274.75 C 417.9375 273.652344 418.519531 272.9375 419.363281 271.777344 C 425.476562 263.34375 426.945312 248.894531 421.726562 240.1875 C 415.148438 229.199219 407.792969 227.054688 395.617188 223.128906 C 386.386719 220.152344 369.46875 218.101562 361.445312 214.503906 C 358.828125 213.335938 356.984375 212.285156 355.308594 210.039062 C 352.28125 205.972656 352.292969 209.3125 346.882812 218.230469 C 346.371094 219.074219 345.988281 219.6875 345.488281 220.628906 C 344.191406 223.070312 341.5625 226.902344 341.128906 228.765625 Z M 341.128906 228.761719 " fill-opacity="1" fill-rule="evenodd"/><path fill="#717172" d="M 1290.855469 140.515625 L 1290.855469 281.019531 C 1290.855469 282.242188 1292.226562 282.914062 1293.503906 282.914062 L 1308.269531 282.914062 C 1313.363281 282.914062 1314.328125 281.949219 1314.328125 276.855469 L 1314.328125 140.515625 C 1314.328125 139.238281 1313.660156 137.863281 1312.433594 137.863281 L 1293.5 137.863281 C 1291.730469 137.863281 1290.851562 138.746094 1290.851562 140.515625 Z M 1290.855469 140.515625 " fill-opacity="1" fill-rule="evenodd"/><path fill="#717172" d="M 542.210938 196.566406 C 542.210938 195.03125 542.394531 188.058594 542.109375 187.125 C 541.578125 185.359375 541.144531 187.261719 538.582031 191.421875 C 537.910156 192.515625 537.488281 193.261719 536.886719 194.273438 L 520.707031 221.265625 L 520.636719 264.367188 C 520.632812 266.558594 520.289062 266.949219 520.230469 268.886719 C 520.136719 271.984375 520.246094 275.253906 520.230469 278.378906 C 520.210938 282.65625 520.898438 282.941406 525.160156 282.925781 C 528.464844 282.914062 530.808594 282.34375 534.257812 282.535156 C 536.003906 282.628906 536.613281 282.925781 538.796875 282.929688 C 540.964844 282.933594 541.746094 282.671875 543.34375 282.539062 C 544.945312 275.671875 542.605469 238.121094 544.3125 226.316406 C 545.191406 220.199219 546.523438 214.996094 549.558594 209.976562 L 552.570312 205.792969 C 559.15625 198.1875 567.925781 196.011719 578.117188 197.394531 C 579.546875 197.589844 582.347656 198.386719 582.347656 196.1875 L 582.347656 176.871094 C 582.347656 173.28125 566.898438 175.382812 563.160156 176.992188 C 555.476562 180.308594 547.296875 186.667969 543.546875 194.492188 C 542.875 195.886719 543.335938 195.738281 542.210938 196.5625 Z M 542.210938 196.566406 " fill-opacity="1" fill-rule="evenodd"/><path fill="#5e9b3a" d="M 243.433594 179.527344 L 243.433594 197.328125 C 245.332031 197.285156 247.328125 195.792969 249.511719 194.699219 C 257.625 190.644531 269.074219 191.753906 276.40625 196.167969 C 290.3125 204.542969 293.042969 221.710938 293.042969 237.09375 C 293.535156 236.527344 293.203125 236.929688 293.675781 236.210938 C 293.871094 235.917969 294.09375 235.542969 294.257812 235.277344 C 297.058594 230.628906 312.359375 205.601562 312.359375 204.144531 C 312.359375 199.75 303.832031 188.074219 298.511719 183.910156 C 295.605469 181.636719 293.398438 179.730469 289.628906 178.023438 C 287.320312 176.972656 285.253906 176.03125 282.527344 175.28125 C 281.195312 174.917969 280.300781 174.496094 278.667969 174.21875 C 266.058594 172.085938 259.566406 171.777344 247.277344 176.164062 C 245.527344 176.785156 243.445312 177.046875 243.445312 179.53125 Z M 243.433594 179.527344 " fill-opacity="1" fill-rule="evenodd"/><path fill="#717172" d="M 361.199219 193.539062 C 367.039062 193.40625 379.875 189.660156 389.527344 197.019531 C 390.464844 197.738281 390.066406 197.4375 390.902344 198.292969 C 390.957031 198.351562 391.035156 198.429688 391.09375 198.484375 L 391.464844 198.867188 C 400.179688 208.390625 384.058594 207.167969 419.515625 207.167969 C 423.753906 207.167969 418.359375 192.148438 410.714844 184.917969 L 408.890625 183.335938 C 407.558594 182.21875 406.203125 181.335938 404.683594 180.347656 C 398.671875 176.460938 390.488281 174.296875 383.113281 173.515625 C 380.789062 173.265625 378.476562 173.632812 376.113281 173.28125 C 373.226562 172.855469 372.773438 173.582031 371.636719 175.5625 L 361.203125 193.53125 Z M 361.199219 193.539062 " fill-opacity="1" fill-rule="evenodd"/></svg>